<svg id="Livello_1" data-name="Livello 1" xmlns="http://www.w3.org/2000/svg" viewBox="0 0 388.29 483.46"><defs><style>.cls-1{fill:#aeaeae;}.cls-2{fill:#8952a1;}</style></defs><path class="cls-1" d="M292.36,519a2.46,2.46,0,0,0,1.92-.58,8.05,8.05,0,0,1,.66-.49c.48-.27,1-.51,1.47-.79,1.53-.88,3.06-1.76,4.58-2.67.63-.39,1.33-.67,1.94-1.08,1.55-1,3.26-1.75,4.77-2.84a13.37,13.37,0,0,1,1.8-1c.95-.48,1.84-1.06,2.77-1.55s1.64-1,2.49-1.51a9.64,9.64,0,0,0,1.65-.77c.95-.85,2.26-1.13,3.16-2a25.24,25.24,0,0,0,3.63-2c1.26-.79,2.59-1.48,3.88-2.23l4.83-2.8a9.28,9.28,0,0,1,1.3-.8c1.49-.56,2.67-1.67,4.16-2.25,1-.39,1.76-1.25,2.73-1.67s1.84-1.22,2.9-1.62a21.82,21.82,0,0,0,3.11-1.83,14.3,14.3,0,0,0,1.61-.82,38.8,38.8,0,0,1,3.44-2.08,10.43,10.43,0,0,1,2.22-1.16c1.07-1,2.48-1.42,3.66-2.24,1-.71,2.25-1.09,3.26-1.84.48-.36,1-.62,1.53-.95a14.46,14.46,0,0,0,1.83-1,11.15,11.15,0,0,1,2.4-1.4c.63-.32,1.1-.85,1.76-1.11s1.27-.57,1.91-.87a.72.72,0,0,0,.2-.19c.93-.94,2.23-1.32,3.3-2.05.72-.5,1.62-.73,2.31-1.26,1.55-1.2,3.5-1.74,5-3,1.39-.44,2.45-1.47,3.76-2.06,1-.46,1.93-1.08,2.9-1.62a16.67,16.67,0,0,1,3-1.75c.43-.55,1.16-.56,1.68-.94a41.43,41.43,0,0,1,3.56-2.14c1-.59,2-1.11,3-1.72s1.78-1,2.66-1.55,2-1.21,3-1.73c.59-.29,1-.77,1.64-1a49.22,49.22,0,0,0,5.12-2.86c1.24-.69,2.49-1.41,3.7-2.19s2.49-1.4,3.74-2.1c1.5-.84,2.95-1.75,4.47-2.56s2.94-1.76,4.45-2.59a13.19,13.19,0,0,0,1.81-1c1.48-1.14,3.28-1.74,4.75-2.89,1.48-.56,2.65-1.7,4.14-2.25a3.38,3.38,0,0,0,1.34-.71c.88-.95,2.12-1.3,3.15-2s2.24-1.27,3.35-1.94c1.56-.93,3.17-1.77,4.75-2.66.36-.2.68-.48,1.06-.66a26.11,26.11,0,0,1,2.54-1.41,7,7,0,0,0,1.34-.73,29.06,29.06,0,0,1,3.07-1.92c1.36-.62,2.58-1.47,3.88-2.18.65-.36,1.37-.64,2-1a49,49,0,0,1,4.4-2.62c1.42-.77,2.82-1.59,4.2-2.43s2.9-1.61,4.34-2.44a1.2,1.2,0,0,0,.74-1.07c0-.47,0-.93,0-1.4V272.94c0-.42,0-.85,0-1.27a7.14,7.14,0,0,0-.09-.74,1.46,1.46,0,0,0-.36-.13q-92,0-184.07,0c-.28,0-.56,0-.84,0a.33.33,0,0,0-.13,0,1.47,1.47,0,0,0-.2.18c0,.42,0,.92,0,1.43v56.81c0,.23,0,.47,0,.7s.06.54.09.85a8.67,8.67,0,0,0,1.88.09H410.17c.47,0,.94,0,1.41,0a6.51,6.51,0,0,1,.72.06c.1.13.14.16.15.2a.88.88,0,0,1,.06.28q0,20.6,0,41.2c0,.37,0,.75,0,1.12a.35.35,0,0,1,0,.14l-.1.15c-1.28.75-2.6,1.53-3.92,2.29a6.16,6.16,0,0,0-1.12.56c-1.08,1-2.62,1.24-3.63,2.32a41.57,41.57,0,0,0-3.89,2.09c-1.6.85-3,2.05-4.76,2.61,0,0-.06.08-.1.1-1,.63-1.94,1.27-2.93,1.88-.67.41-1.37.78-2.06,1.15a14.28,14.28,0,0,0-2.09,1.1,43.61,43.61,0,0,1-4,2.34c-1.24.8-2.53,1.51-3.81,2.24-.68.38-1.35.78-2,1.18-2.07,1.25-4.25,2.29-6.28,3.59-1.3.82-2.7,1.44-4,2.3s-2.83,1.61-4.24,2.42c-.57.32-1.1.69-1.68,1-1.29.64-2.4,1.59-3.75,2.11-.36.5-1.06.43-1.44.81a7,7,0,0,1-1.76,1.12c-1.26.72-2.61,1.29-3.79,2.12-1.36,1-2.91,1.59-4.29,2.52-.91.61-1.92,1.1-2.87,1.65-1.6.93-3.16,1.92-4.81,2.76a9.71,9.71,0,0,0-1.71.94c-1.09.89-2.46,1.28-3.56,2.16a8.34,8.34,0,0,1-1.58.88c-.49.24-1.1.28-1.36.86-1.21.5-2.23,1.34-3.38,1.93s-2.19,1.18-3.26,1.83a35.34,35.34,0,0,1-3.6,2.12c-1.28.57-2.31,1.55-3.64,2a5.63,5.63,0,0,0-1.94,1.06c-.91.85-2.21,1-3,2a10.77,10.77,0,0,0-1.73.87c-.58.3-1.06.73-1.62,1-1.12.55-2.16,1.24-3.27,1.8-1.71.86-3.18,2.13-5,2.78a35.26,35.26,0,0,1-3.43,2.09c-.75.53-1.65.84-2.42,1.35s-1.83.75-2.3,1.65ZM478,242c0-.61,0-1.08,0-1.54V198.67c0-.38,0-.75,0-1.13a.8.8,0,0,0-.54-.75c-.89-.3-1.52-1.09-2.46-1.29-.17,0-.31-.19-.47-.28L470.72,193c-1-.6-2.11-1.18-3.16-1.78-.27-.16-.5-.39-.78-.54a20.75,20.75,0,0,1-2.33-1.25c-1.13-.81-2.46-1.27-3.54-2.16-2.35-1.1-4.44-2.67-6.78-3.82a8.24,8.24,0,0,1-1.47-.78,34.38,34.38,0,0,0-4.29-2.55,52.32,52.32,0,0,0-4.84-2.74,5.66,5.66,0,0,1-1.43-.84c-.91-.8-2.12-1.1-3-1.93-1.6-.64-3-1.7-4.51-2.47-.68-.33-1.21-.87-1.89-1.17a21.92,21.92,0,0,1-2.91-1.64,11.44,11.44,0,0,0-1.44-.83,11,11,0,0,1-1.47-.79c-1-.68-2.21-1.18-3.25-1.88-.7-.48-1.5-.74-2.19-1.21a38.4,38.4,0,0,0-3.71-2.19c-1.15-.61-2.24-1.32-3.38-1.95a29.05,29.05,0,0,0-2.89-1.6,1.58,1.58,0,0,1-.47-.28c-.89-.84-2.14-1.12-3-2-2-.73-3.58-2.17-5.51-3a17.33,17.33,0,0,0-2.74-1.65c-1-.62-2-1.28-3.12-1.83-1.36-.7-2.66-1.52-4-2.29-.47-.28-.93-.59-1.42-.85a17.12,17.12,0,0,1-2.21-1.15,37.74,37.74,0,0,0-3.94-2.37,36.9,36.9,0,0,0-3.36-1.88c-.38-.57-1.15-.44-1.58-.84a15.38,15.38,0,0,0-2.47-1.53c-1.47-.94-3-1.79-4.57-2.6-.36-.19-.68-.47-1.05-.66-1.66-.84-3.23-1.83-4.8-2.8-1.37-.85-2.94-1.36-4.18-2.43-1.81-.83-3.39-2.09-5.22-2.9a9.58,9.58,0,0,1-1.47-1c.37-.39.77-.26,1.12-.26h7.87a2.71,2.71,0,0,1,.7,0,16.72,16.72,0,0,0,4.06.2c1.49,0,3,0,4.49,0a10.36,10.36,0,0,1,1.12.07c.51,0,1,.16,1.52.16q10.48,0,21,0a10.47,10.47,0,0,0,1.12,0c.11,0,.21-.16.31-.24a1.11,1.11,0,0,0-.77-1,16.77,16.77,0,0,1-1.57-.87,12,12,0,0,1-1.58-.86,8.41,8.41,0,0,0-1.56-.9,44.82,44.82,0,0,1-4.26-2.31,41.5,41.5,0,0,0-3.66-2,2,2,0,0,1-.62-.32,32.19,32.19,0,0,0-3.43-2.07c-1.1-.76-2.43-1.18-3.56-1.9-.85-.55-1.9-.76-2.62-1.54-.12-.12-.34-.14-.51-.22a13.32,13.32,0,0,1-1.24-.66,18.38,18.38,0,0,1-2.81-1.72,24.24,24.24,0,0,1-4.54-2.38,15.92,15.92,0,0,0-2.34-1.24,14.81,14.81,0,0,1-2.32-1.26c-.67-.39-1.34-.82-2-1.16a42.4,42.4,0,0,1-3.92-2.15c-1.34-.85-2.77-1.49-4.12-2.31-2.1-1.28-4.3-2.38-6.45-3.56a5,5,0,0,0-.83-.52,43.29,43.29,0,0,1-3.93-2.08,6.38,6.38,0,0,1-1.56-.91c-.61-.52-1.45-.63-2-1.2-1.17-.25-2-1.13-3.05-1.6-.72-.32-1.34-.85-2-1.18a34.51,34.51,0,0,1-3.68-2c-.23-.14-.47-.28-.72-.4A23,23,0,0,1,325.2,85c-.48-.34-1-.42-1.49-.74s-1.12-.82-1.72-1.15c-1.23-.66-2.47-1.3-3.72-1.9s-2.37-1.42-3.63-2c-1.07-.51-2.05-1.23-3.11-1.78a6.85,6.85,0,0,1-1.35-.69c-1.11-1-2.74-1.14-3.74-2.3a36.21,36.21,0,0,1-3.58-1.79,56.35,56.35,0,0,0-5.3-2.86,35.14,35.14,0,0,0-4.09-2.34c-.35-.2-.68-.46-1-.66-.78-.42-1.58-.8-2.35-1.23-1.1-.62-2.24-1.16-3.31-1.79-1.23-.73-2.5-1.38-3.7-2.15s-2.72-1.4-4-2.24A17,17,0,0,0,277,58.29a11.41,11.41,0,0,0-2.34-1.18c-1.38-.94-2.93-1.57-4.31-2.5a19.6,19.6,0,0,1-2.65-1.49c-.69-.08-1.06-.72-1.67-1a19.25,19.25,0,0,1-2.85-1.48c-1-.62-2.08-1.22-3.14-1.8-1.33-.73-2.72-1.37-4-2.17-.48-.3-1-.46-1.47-.76-1.84-1.18-3.8-2.15-5.7-3.22a21.48,21.48,0,0,1-2-1c-.89-.6-1.85-1-2.78-1.57s-1.63-.86-2.44-1.31a19.8,19.8,0,0,1-2.52-1.48c-.72-.53-1.71-.56-2.26-1.34-.56-.1-1.07-.65-1.77-.15.11.31.19.61.31.9.42,1,1.36,1.62,1.91,2.54A17,17,0,0,0,239,41.35c.53.65,1.09,1.28,1.62,1.92a16.83,16.83,0,0,0,1.68,2c.68.61.92,1.48,1.56,2.09.22.22.42.48.63.71A19,19,0,0,1,245.89,50c.11.14.16.36.29.44.67.4,1,1.1,1.46,1.64a20.63,20.63,0,0,1,1.4,1.72,5.63,5.63,0,0,0,.51.67c1.29,1.39,2.4,2.93,3.6,4.4.46.57.9,1.17,1.37,1.74,1.21,1.47,2.35,3,3.59,4.43.45.53.86,1.1,1.29,1.65s1,1.24,1.45,1.87,1.15,1.09,1.37,1.89a.73.73,0,0,0,.25.33,18.37,18.37,0,0,1,2.66,3.12c.76.92,1.5,1.88,2.27,2.8,1.16,1.38,2.26,2.82,3.35,4.26a16.85,16.85,0,0,0,1.64,2c.65.61.87,1.48,1.61,2a10.94,10.94,0,0,1,1.61,2.09c1.51,1.89,3.05,3.76,4.56,5.64a6.76,6.76,0,0,0,.91,1.23c.83.66,1.25,1.63,2,2.35s1.16,1.55,1.81,2.28,1.25,1.49,1.83,2.26c1.49,2,3.13,3.79,4.51,5.82a3.6,3.6,0,0,1,1.1,3.09q0,27.28,0,54.56c0,.56,0,1.11,0,1.73l2.79,1.66c.36.21.69.46,1.05.66s.83.43,1.23.67c1.07.62,2.1,1.34,3.22,1.87s2,1.14,3,1.73,1.88,1.17,2.85,1.71a11.59,11.59,0,0,1,2.11,1.07,22.21,22.21,0,0,0,2.12,1.29c.72.51,1.51.92,2.28,1.36,1.09.63,2.22,1.18,3.25,1.9.52.36,1.14.41,1.63.77.82.59,1.73,1,2.6,1.57s1.95,1.23,3,1.74a35.85,35.85,0,0,0,3.14,1.79,5.94,5.94,0,0,1,1.69,1c1,.78,2.29,1,3.08,2a25.55,25.55,0,0,1,3.95,2.06c.6.34,1.17.72,1.77,1.07a10.27,10.27,0,0,0,1.8,1,14.57,14.57,0,0,1,2.27,1.34c1.67.92,3.3,1.9,4.95,2.86,1.19.7,2.39,1.41,3.61,2.06.62.33,1.15.77,1.78,1.07a18.85,18.85,0,0,1,1.68,1,4.07,4.07,0,0,0,.7.44c1.52.5,2.72,1.59,4.14,2.28.66.32,1.21.87,1.87,1.18a38.6,38.6,0,0,1,3.39,1.89c.64.38,1.33.67,2,1.05,1.11.67,2.17,1.42,3.3,2a12.84,12.84,0,0,0,1.55.89,17.19,17.19,0,0,1,2.9,1.64c1,.57,1.94,1.25,3,1.75,1.46.71,2.81,1.58,4.22,2.38a8.62,8.62,0,0,1,2.14,1.28c1.76.64,3.09,2.06,4.87,2.67a30,30,0,0,0,3.81,2.28c1.72,1,3.43,2,5.18,3s3.3,1.85,4.89,2.9c1.14.76,2.44,1.31,3.62,2s2.47,1.42,3.7,2.14c.64.37,1.26.77,1.9,1.14s1.44.81,2.18,1.22V237c0,1.36,0,2.72,0,4.08a6.74,6.74,0,0,0,.17,1h64.47C477.39,242,477.62,242,478,242Z" transform="translate(-89.76 -35.63)"/><path class="cls-1" d="M292.36,519V443.65c.47-.9,1.5-1.13,2.3-1.65s1.67-.82,2.42-1.35a35.26,35.26,0,0,0,3.43-2.09c1.81-.65,3.28-1.92,5-2.78,1.11-.56,2.15-1.25,3.27-1.8.56-.28,1-.71,1.62-1a10.77,10.77,0,0,1,1.73-.87c.82-1,2.12-1.13,3-2a5.63,5.63,0,0,1,1.94-1.06c1.33-.48,2.36-1.46,3.64-2a35.34,35.34,0,0,0,3.6-2.12c1.07-.65,2.15-1.26,3.26-1.83s2.17-1.43,3.38-1.93c.26-.58.87-.62,1.36-.86a8.34,8.34,0,0,0,1.58-.88c1.1-.88,2.47-1.27,3.56-2.16a9.71,9.71,0,0,1,1.71-.94c1.65-.84,3.21-1.83,4.81-2.76.95-.55,2-1,2.87-1.65,1.38-.93,2.93-1.55,4.29-2.52,1.18-.83,2.53-1.4,3.79-2.12a7,7,0,0,0,1.76-1.12c.38-.38,1.08-.31,1.44-.81,1.35-.52,2.46-1.47,3.75-2.11.58-.29,1.11-.66,1.68-1,1.41-.81,2.89-1.52,4.24-2.42s2.68-1.48,4-2.3c2-1.3,4.21-2.34,6.28-3.59.67-.4,1.34-.8,2-1.18,1.28-.73,2.57-1.44,3.81-2.24a43.61,43.61,0,0,0,4-2.34,14.28,14.28,0,0,1,2.09-1.1c.69-.37,1.39-.74,2.06-1.15,1-.61,2-1.25,2.93-1.88,0,0,.06-.09.1-.1,1.75-.56,3.16-1.76,4.76-2.61a41.57,41.57,0,0,1,3.89-2.09c1-1.08,2.55-1.34,3.63-2.32a6.16,6.16,0,0,1,1.12-.56c1.32-.76,2.64-1.54,3.92-2.29l.1-.15a.35.35,0,0,0,0-.14c0-.37,0-.75,0-1.12q0-20.61,0-41.2a.88.88,0,0,0-.06-.28s-.05-.07-.15-.2a6.51,6.51,0,0,0-.72-.06c-.47,0-.94,0-1.41,0H294.3a8.67,8.67,0,0,1-1.88-.09c0-.31-.08-.58-.09-.85s0-.47,0-.7V272.46c0-.51,0-1,0-1.43a1.47,1.47,0,0,1,.2-.18.33.33,0,0,1,.13,0c.28,0,.56,0,.84,0q92,0,184.07,0a1.46,1.46,0,0,1,.36.13,7.14,7.14,0,0,1,.09.74c0,.42,0,.85,0,1.27V410.33c0,.47,0,.93,0,1.4a1.2,1.2,0,0,1-.74,1.07c-1.44.83-2.92,1.58-4.34,2.44s-2.78,1.66-4.2,2.43a49,49,0,0,0-4.4,2.62c-.6.41-1.32.69-2,1-1.3.71-2.52,1.56-3.88,2.18a29.06,29.06,0,0,0-3.07,1.92,7,7,0,0,1-1.34.73,26.11,26.11,0,0,0-2.54,1.41c-.38.18-.7.46-1.06.66-1.58.89-3.19,1.73-4.75,2.66-1.11.67-2.3,1.22-3.35,1.94s-2.27,1.05-3.15,2a3.38,3.38,0,0,1-1.34.71c-1.49.55-2.66,1.69-4.14,2.25-1.47,1.15-3.27,1.75-4.75,2.89a13.19,13.19,0,0,1-1.81,1c-1.51.83-2.94,1.77-4.45,2.59s-3,1.72-4.47,2.56c-1.25.7-2.55,1.34-3.74,2.1s-2.46,1.5-3.7,2.19a49.22,49.22,0,0,1-5.12,2.86c-.6.24-1.05.72-1.64,1-1,.52-2,1.15-3,1.73s-1.79,1-2.66,1.55-2,1.13-3,1.72a41.43,41.43,0,0,0-3.56,2.14c-.52.38-1.25.39-1.68.94a16.67,16.67,0,0,0-3,1.75c-1,.54-1.9,1.16-2.9,1.62-1.31.59-2.37,1.62-3.76,2.06-1.49,1.28-3.44,1.82-5,3-.69.53-1.59.76-2.31,1.26-1.07.73-2.37,1.11-3.3,2.05a.72.72,0,0,1-.2.19c-.64.3-1.26.61-1.91.87s-1.13.79-1.76,1.11a11.15,11.15,0,0,0-2.4,1.4,14.46,14.46,0,0,1-1.83,1c-.5.33-1.05.59-1.53.95-1,.75-2.23,1.13-3.26,1.84-1.18.82-2.59,1.25-3.66,2.24a10.43,10.43,0,0,0-2.22,1.16,38.8,38.8,0,0,0-3.44,2.08,14.3,14.3,0,0,1-1.61.82A21.82,21.82,0,0,1,343,490.3c-1.06.4-1.87,1.17-2.9,1.62s-1.75,1.28-2.73,1.67c-1.49.58-2.67,1.69-4.16,2.25a9.28,9.28,0,0,0-1.3.8l-4.83,2.8c-1.29.75-2.62,1.44-3.88,2.23a25.24,25.24,0,0,1-3.63,2c-.9.9-2.21,1.18-3.16,2a9.64,9.64,0,0,1-1.65.77c-.85.47-1.62,1.05-2.49,1.51s-1.82,1.07-2.77,1.55a13.37,13.37,0,0,0-1.8,1c-1.51,1.09-3.22,1.82-4.77,2.84-.61.41-1.31.69-1.94,1.08-1.52.91-3.05,1.79-4.58,2.67-.48.28-1,.52-1.47.79a8.05,8.05,0,0,0-.66.49A2.46,2.46,0,0,1,292.36,519Z" transform="translate(-89.76 -35.63)"/><path class="cls-1" d="M478,242c-.4,0-.63.06-.85.06H412.7a6.74,6.74,0,0,1-.17-1c0-1.36,0-2.72,0-4.08v-1.46c-.74-.41-1.47-.81-2.18-1.22s-1.26-.77-1.9-1.14c-1.23-.72-2.48-1.4-3.7-2.14s-2.48-1.28-3.62-2c-1.59-1.05-3.24-2-4.89-2.9s-3.46-2-5.18-3a30,30,0,0,1-3.81-2.28c-1.78-.61-3.11-2-4.87-2.67a8.62,8.62,0,0,0-2.14-1.28c-1.41-.8-2.76-1.67-4.22-2.38-1-.5-2-1.18-3-1.75a17.19,17.19,0,0,0-2.9-1.64,12.84,12.84,0,0,1-1.55-.89c-1.13-.63-2.19-1.38-3.3-2-.64-.38-1.33-.67-2-1.05a38.6,38.6,0,0,0-3.39-1.89c-.66-.31-1.21-.86-1.87-1.18-1.42-.69-2.62-1.78-4.14-2.28a4.07,4.07,0,0,1-.7-.44,18.85,18.85,0,0,0-1.68-1c-.63-.3-1.16-.74-1.78-1.07-1.22-.65-2.42-1.36-3.61-2.06-1.65-1-3.28-1.94-4.95-2.86a14.57,14.57,0,0,0-2.27-1.34,10.27,10.27,0,0,1-1.8-1c-.6-.35-1.17-.73-1.77-1.07a25.55,25.55,0,0,0-3.95-2.06c-.79-1-2.12-1.26-3.08-2a5.94,5.94,0,0,0-1.69-1,35.85,35.85,0,0,1-3.14-1.79c-1-.51-2-1.14-3-1.74s-1.78-1-2.6-1.57c-.49-.36-1.11-.41-1.63-.77-1-.72-2.16-1.27-3.25-1.9-.77-.44-1.56-.85-2.28-1.36a22.21,22.21,0,0,1-2.12-1.29,11.59,11.59,0,0,0-2.11-1.07c-1-.54-1.9-1.14-2.85-1.71s-2-1.23-3-1.73-2.15-1.25-3.22-1.87c-.4-.24-.83-.43-1.23-.67s-.69-.45-1.05-.66l-2.79-1.66c0-.62,0-1.17,0-1.73q0-27.28,0-54.56a3.6,3.6,0,0,0-1.1-3.09c-1.38-2-3-3.86-4.51-5.82-.58-.77-1.19-1.55-1.83-2.26s-1.11-1.62-1.81-2.28-1.18-1.69-2-2.35a6.76,6.76,0,0,1-.91-1.23c-1.51-1.88-3.05-3.75-4.56-5.64A10.94,10.94,0,0,0,274,85c-.74-.56-1-1.43-1.61-2a16.85,16.85,0,0,1-1.64-2c-1.09-1.44-2.19-2.88-3.35-4.26-.77-.92-1.51-1.88-2.27-2.8a18.37,18.37,0,0,0-2.66-3.12.73.73,0,0,1-.25-.33c-.22-.8-.9-1.27-1.37-1.89s-1-1.25-1.45-1.87-.84-1.12-1.29-1.65c-1.24-1.44-2.38-3-3.59-4.43-.47-.57-.91-1.17-1.37-1.74-1.2-1.47-2.31-3-3.6-4.4a5.63,5.63,0,0,1-.51-.67,20.63,20.63,0,0,0-1.4-1.72c-.48-.54-.79-1.24-1.46-1.64-.13-.08-.18-.3-.29-.44a19,19,0,0,0-1.39-1.91c-.21-.23-.41-.49-.63-.71-.64-.61-.88-1.48-1.56-2.09a16.83,16.83,0,0,1-1.68-2c-.53-.64-1.09-1.27-1.62-1.92a17,17,0,0,1-1.65-2.07c-.55-.92-1.49-1.53-1.91-2.54-.12-.29-.2-.59-.31-.9.7-.5,1.21,0,1.77.15.55.78,1.54.81,2.26,1.34a19.8,19.8,0,0,0,2.52,1.48c.81.45,1.63.87,2.44,1.31s1.89,1,2.78,1.57a21.48,21.48,0,0,0,2,1c1.9,1.07,3.86,2,5.7,3.22.46.3,1,.46,1.47.76,1.29.8,2.68,1.44,4,2.17,1.06.58,2.11,1.18,3.14,1.8A19.25,19.25,0,0,0,266,52.16c.61.24,1,.88,1.67,1a19.6,19.6,0,0,0,2.65,1.49c1.38.93,2.93,1.56,4.31,2.5A11.41,11.41,0,0,1,277,58.29a17,17,0,0,1,2.05,1.11c1.29.84,2.72,1.42,4,2.24s2.47,1.42,3.7,2.15c1.07.63,2.21,1.17,3.31,1.79.77.43,1.57.81,2.35,1.23.36.2.69.46,1,.66a35.14,35.14,0,0,1,4.09,2.34,56.35,56.35,0,0,1,5.3,2.86,36.21,36.21,0,0,0,3.58,1.79c1,1.16,2.63,1.3,3.74,2.3a6.85,6.85,0,0,0,1.35.69c1.06.55,2,1.27,3.11,1.78,1.26.59,2.38,1.42,3.63,2s2.49,1.24,3.72,1.9c.6.33,1.15.76,1.72,1.15s1,.4,1.49.74a23,23,0,0,0,2.68,1.45c.25.12.49.26.72.4a34.51,34.51,0,0,0,3.68,2c.7.33,1.32.86,2,1.18,1.05.47,1.88,1.35,3.05,1.6.56.57,1.4.68,2,1.2a6.38,6.38,0,0,0,1.56.91,43.29,43.29,0,0,0,3.93,2.08,5,5,0,0,1,.83.52c2.15,1.18,4.35,2.28,6.45,3.56,1.35.82,2.78,1.46,4.12,2.31a42.4,42.4,0,0,0,3.92,2.15c.69.34,1.36.77,2,1.16a14.81,14.81,0,0,0,2.32,1.26,15.92,15.92,0,0,1,2.34,1.24,24.24,24.24,0,0,0,4.54,2.38,18.38,18.38,0,0,0,2.81,1.72,13.32,13.32,0,0,0,1.24.66c.17.08.39.1.51.22.72.78,1.77,1,2.62,1.54,1.13.72,2.46,1.14,3.56,1.9a32.19,32.19,0,0,1,3.43,2.07,2,2,0,0,0,.62.32,41.5,41.5,0,0,1,3.66,2,44.82,44.82,0,0,0,4.26,2.31,8.41,8.41,0,0,1,1.56.9,12,12,0,0,0,1.58.86,16.77,16.77,0,0,0,1.57.87,1.11,1.11,0,0,1,.77,1c-.1.08-.2.23-.31.24a10.47,10.47,0,0,1-1.12,0q-10.49,0-21,0c-.5,0-1-.12-1.52-.16a10.36,10.36,0,0,0-1.12-.07c-1.5,0-3,0-4.49,0a16.72,16.72,0,0,1-4.06-.2,2.71,2.71,0,0,0-.7,0h-7.87c-.35,0-.75-.13-1.12.26a9.58,9.58,0,0,0,1.47,1c1.83.81,3.41,2.07,5.22,2.9,1.24,1.07,2.81,1.58,4.18,2.43,1.57,1,3.14,2,4.8,2.8.37.19.69.47,1.05.66,1.56.81,3.1,1.66,4.57,2.6a15.38,15.38,0,0,1,2.47,1.53c.43.4,1.2.27,1.58.84a36.9,36.9,0,0,1,3.36,1.88,37.74,37.74,0,0,1,3.94,2.37,17.12,17.12,0,0,0,2.21,1.15c.49.26.95.57,1.42.85,1.32.77,2.62,1.59,4,2.29,1.08.55,2.09,1.21,3.12,1.83a17.33,17.33,0,0,1,2.74,1.65c1.93.81,3.53,2.25,5.51,3,.89.83,2.14,1.11,3,2a1.58,1.58,0,0,0,.47.28,29.05,29.05,0,0,1,2.89,1.6c1.14.63,2.23,1.34,3.38,1.95a38.4,38.4,0,0,1,3.71,2.19c.69.47,1.49.73,2.19,1.21,1,.7,2.21,1.2,3.25,1.88a11,11,0,0,0,1.47.79,11.44,11.44,0,0,1,1.44.83,21.92,21.92,0,0,0,2.91,1.64c.68.3,1.21.84,1.89,1.17,1.53.77,2.91,1.83,4.51,2.47.88.83,2.09,1.13,3,1.93a5.66,5.66,0,0,0,1.43.84,52.32,52.32,0,0,1,4.84,2.74,34.38,34.38,0,0,1,4.29,2.55,8.24,8.24,0,0,0,1.47.78c2.34,1.15,4.43,2.72,6.78,3.82,1.08.89,2.41,1.35,3.54,2.16a20.75,20.75,0,0,0,2.33,1.25c.28.15.51.38.78.54,1.05.6,2.12,1.18,3.16,1.78l3.83,2.27c.16.09.3.25.47.28.94.2,1.57,1,2.46,1.29a.8.8,0,0,1,.54.75c0,.38,0,.75,0,1.13v41.76C478.05,240.89,478,241.36,478,242Z" transform="translate(-89.76 -35.63)"/><path class="cls-2" d="M331.84,37.2c-.1-.07-.14-.12-.18-.12a.49.49,0,0,0-.27,0L168.62,127.26c-.05,0-.06.16-.11.3a3.63,3.63,0,0,0,1.35.1q7.53,0,15-.2c6.65-.16,13.3-.16,20-.24l6.46-.07c.21,0,.49-.08.55.39l-61,35.24L89.76,198V412.28c.43.27.82.54,1.22.77l19.47,11.25,21.67,12.5,20,11.52,24.34,14.05q11.33,6.54,22.63,13.08,10.77,6.23,21.55,12.42l23.13,13.35,20.19,11.68,10.23,5.89c.27.15.53.44.89.23a.43.43,0,0,0,0-.13,2,2,0,0,0,.06-.42q0-36.48,0-73c0-.28,0-.56,0-.84a.69.69,0,0,0-.05-.13.88.88,0,0,0-.09-.21l-2.48-1.44c-3.61-2.09-7.21-4.19-10.83-6.27L249,429.31q-6.27-3.62-12.52-7.26L222,413.71l-11.08-6.39L198.28,400l-12.41-7.17-9.62-5.55-11.07-6.38-9.37-5.42c-.36-.21-.69-.46-1.06-.7V372.9l0-94.07,0-41.48a5.09,5.09,0,0,1,.12-1.72c.43-.26.85-.54,1.3-.8l12.42-7.14,39-22.47,34.69-20q15.7-9.06,31.4-18.13c1.8-1,1.54-.49,1.54-2.71V110.64a8.51,8.51,0,0,0,0-1.13,3,3,0,0,1,.88-2.55c.67-.72,1.24-1.52,1.85-2.29Q284.5,96.5,291,88.33,298.5,79,305.93,69.67T320.86,51q5.14-6.42,10.26-12.84C331.38,37.87,331.6,37.53,331.84,37.2Z" transform="translate(-89.76 -35.63)"/><path class="cls-2" d="M331.84,37.2c-.24.33-.46.67-.72,1Q326,44.61,320.86,51q-7.46,9.31-14.93,18.64T291,88.33q-6.53,8.17-13.08,16.34c-.61.77-1.18,1.57-1.85,2.29a3,3,0,0,0-.88,2.55,8.51,8.51,0,0,1,0,1.13v53.71c0,2.22.26,1.67-1.54,2.71q-15.69,9.09-31.4,18.13l-34.69,20-39,22.47-12.42,7.14c-.45.26-.87.54-1.3.8a5.09,5.09,0,0,0-.12,1.72l0,41.48,0,94.07v1.88c.37.24.7.49,1.06.7l9.37,5.42,11.07,6.38,9.62,5.55L198.28,400l12.65,7.32L222,413.71l14.49,8.34q6.25,3.63,12.52,7.26l12.66,7.29c3.62,2.08,7.22,4.18,10.83,6.27l2.48,1.44a.88.88,0,0,1,.09.21.69.69,0,0,1,.05.13c0,.28,0,.56,0,.84q0,36.5,0,73a2,2,0,0,1-.06.42.43.43,0,0,1,0,.13c-.36.21-.62-.08-.89-.23l-10.23-5.89-20.19-11.68L220.6,487.87q-10.77-6.21-21.55-12.42-11.33-6.52-22.63-13.08l-24.34-14.05-20-11.52-21.67-12.5L91,413.05c-.4-.23-.79-.5-1.22-.77V198l61.07-35.26,61-35.24c-.06-.47-.34-.39-.55-.39l-6.46.07c-6.66.08-13.31.08-20,.24q-7.52.2-15,.2a3.63,3.63,0,0,1-1.35-.1c.05-.14.06-.27.11-.3L331.39,37.09a.49.49,0,0,1,.27,0S331.74,37.13,331.84,37.2Z" transform="translate(-89.76 -35.63)"/></svg>